<?xml version="1.0" encoding="utf-8"?>
<!-- Generator: Adobe Illustrator 16.0.0, SVG Export Plug-In . SVG Version: 6.00 Build 0)  -->
<!DOCTYPE svg PUBLIC "-//W3C//DTD SVG 1.1//EN" "http://www.w3.org/Graphics/SVG/1.1/DTD/svg11.dtd">
<svg version="1.1" id="Layer_1" xmlns="http://www.w3.org/2000/svg" xmlns:xlink="http://www.w3.org/1999/xlink" x="0px" y="0px"
	 width="740px" height="140px" viewBox="0 0 740 140" style="enable-background:new 0 0 740 140;" xml:space="preserve">
<style type="text/css">
<![CDATA[
	.st0{fill:#2481D7;}
]]>
</style>
<g>
	<g>
		<g>
			<path class="st0" d="M255.8,99.2V52.8h-0.2l-14.2,46.4h-14.7l-14.2-46.4h-0.2v46.4h-14.9V38.8h24.8L234,80h0.2l11.7-41.3h24.8
				v60.4H255.8z"/>
			<path class="st0" d="M324.6,75.5c0,1.5-0.1,4.3-0.1,4.3h-32c0.3,4.7,4.1,7.9,10.2,7.9c6.2,0,10.4-2.4,13.3-4.7h0.7l4.6,11.9
				c-2.9,2.3-9.5,5.3-18.3,5.3c-14.2,0-24.4-9.1-24.4-24.9c0-15.6,10.2-25.5,23.5-25.5C315.6,49.8,324.6,60.2,324.6,75.5z M293,69.5
				h18.5c-0.4-3.8-3.8-7.5-9.2-7.5C296.8,62,293.6,65.6,293,69.5z"/>
			<path class="st0" d="M369.9,57.3l-5.1,11.3h-0.7c-4.1-4.5-9.8-6.8-14.2-6.8c-3.7,0-5.1,1.6-5.1,3.2c0,2.1,0.8,2.4,11.1,4.9
				c9.6,2.3,15.9,6,15.9,15.3c0,9.7-6.8,15-18.6,15c-11.7,0-20.1-4.4-23.4-7.9l5.4-12.1h0.7c4.2,3.5,9.4,6.9,16.8,6.9
				c4.4,0,5.2-1.2,5.2-2.8c0-1.6-0.9-2.5-11.3-5.1c-11.2-2.8-15.5-7.3-15.5-14.6c0-9.1,7.3-14.9,18.2-14.9
				C359.7,49.8,367.7,54.7,369.9,57.3z"/>
			<path class="st0" d="M416.2,57.3l-5.1,11.3h-0.7c-4.1-4.5-9.8-6.8-14.2-6.8c-3.7,0-5.1,1.6-5.1,3.2c0,2.1,0.8,2.4,11.1,4.9
				c9.6,2.3,15.9,6,15.9,15.3c0,9.7-6.8,15-18.6,15c-11.7,0-20.1-4.4-23.4-7.9l5.4-12.1h0.7c4.2,3.5,9.4,6.9,16.8,6.9
				c4.4,0,5.2-1.2,5.2-2.8c0-1.6-0.9-2.5-11.3-5.1c-11.2-2.8-15.5-7.3-15.5-14.6c0-9.1,7.3-14.9,18.2-14.9
				C406.1,49.8,414.1,54.7,416.2,57.3z"/>
			<path class="st0" d="M462.8,68.4v30.8h-11.3l-1.2-6.4H450c-2.3,4.1-7.1,7.4-13.9,7.4c-9.3,0-14.1-6-14.1-13.9
				c0-7.9,3.6-12.9,14.9-15.1c11.3-2.2,12.1-3,12.1-5.4c0-2.3-2.2-3.6-6.7-3.6c-4.9,0-10.4,3.5-13.4,8h-0.7l-5.7-11.7
				c5.3-5.2,12.1-8.7,20.7-8.7C454.1,49.8,462.8,56.9,462.8,68.4z M449,77.8c-0.8,1.3-2.3,2.2-7.4,3.4c-4.9,1.2-5.6,2.6-5.6,4.5
				c0,1.9,1.6,2.8,4.1,2.8c4,0,9.1-2.6,9.1-6.5v-4.2H449z"/>
			<path class="st0" d="M503.1,57.2h0.3l0.8-6.4h11.2v42.2c0,14.9-8.4,23.1-23.7,23.1c-8.7,0-15.4-2.9-19.5-5.9l4.3-12.3h0.7
				c4.1,3.3,8.5,5.3,14,5.3c7.3,0,9.9-2.9,9.9-9.4v-4.4h-0.3c-2.1,3.1-6.2,5.7-12.4,5.7c-11.5,0-19.5-9-19.5-21.8
				c0-14,9.5-23.6,20.7-23.6C496.4,49.8,501.1,53.8,503.1,57.2z M483.6,72.9c0,5.9,3.7,9.6,9.3,9.6c5.4,0,9.1-3.4,9.1-9.7
				c0-6-3.2-10.3-9.1-10.3C486.8,62.5,483.6,67,483.6,72.9z"/>
			<path class="st0" d="M568.4,75.5c0,1.5-0.1,4.3-0.1,4.3h-32c0.3,4.7,4.1,7.9,10.2,7.9c6.2,0,10.4-2.4,13.3-4.7h0.7L565,95
				c-2.9,2.3-9.5,5.3-18.3,5.3c-14.2,0-24.4-9.1-24.4-24.9c0-15.6,10.2-25.5,23.5-25.5C559.4,49.8,568.4,60.2,568.4,75.5z
				 M536.8,69.5h18.5c-0.4-3.8-3.8-7.5-9.2-7.5C540.7,62,537.4,65.6,536.8,69.5z"/>
			<path class="st0" d="M608.5,38.8c11.9,0,18.3,5.8,18.3,15.5c0,6.9-3.2,11.2-9.5,13.9v0.2c5.7,2.2,9.5,6.9,9.5,14.7
				s-4.4,16.1-20.5,16.1h-30.2V38.8H608.5z M591.4,63.4h14.4c3.6,0,5.6-2.1,5.6-5.2c0-3-1.6-5.4-6.1-5.4h-13.9V63.4z M591.4,85.2
				h14.4c3.6,0,5.6-2.1,5.6-5.3s-1.6-5.6-6.1-5.6h-13.9V85.2z"/>
			<path class="st0" d="M650.4,36.1c0,5.2-3.2,9-9,9c-5.8,0-9-3.8-9-9c0-5.3,3.2-8.8,9-8.8C647.2,27.3,650.4,30.8,650.4,36.1z
				 M634.2,99.2V50.8h14.2v48.3H634.2z"/>
			<path class="st0" d="M690.4,53.8l-2.1,13h-0.7c-1.4-1.5-3.5-2.9-6.6-2.9c-5.7,0-9,5.2-9,13.9v21.4h-14.2V50.8h11.7l0.8,6.4h0.3
				c2.6-5.2,6.6-7.4,11-7.4C685,49.8,688.6,51.1,690.4,53.8z"/>
			<path class="st0" d="M728.7,99.2l-1.2-6.4h-0.3c-2.8,4.4-7,7.4-14.7,7.4c-13,0-21.2-10.4-21.2-24.5c0-14.5,8.6-25.9,21.6-25.9
				c5.7,0,10.4,2.2,13.1,6h0.2V35.1H740v64.1H728.7z M705.5,75.1c0,7.3,4.2,11.9,10.5,11.9c6.3,0,10.6-4.1,10.6-12
				c0-7.3-4.2-12.5-10.4-12.5C710,62.5,705.5,67.8,705.5,75.1z"/>
		</g>
	</g>
	<path class="st0" d="M147.6,24.7c-6.6,0-12.5,3.3-16.1,8.3L107.2,67c-0.9,1.3-2.4,2.1-4,2.1c-2.7,0-4.9-2.2-4.9-4.9
		c0-1,0.3-2,0.8-2.7l20.5-30.7c2.1-3.1,3.3-6.9,3.3-11c0-10.9-8.8-19.7-19.7-19.7H0v19.7h88.4c0,5.4-4.4,9.9-9.9,9.9H0
		c0,7,1.5,13.7,4.1,19.7h64.5c0,5.4-4.4,9.9-9.9,9.9H9.9c9,12,23.3,19.7,39.5,19.7h24.3c2.7,0,4.9,2.2,4.9,4.9
		c0,2.7-2.2,4.9-4.9,4.9H49.3l-33,49.3h59.7c27.3,0,50.5-17.8,58.6-42.4l11.1-33.7c3.6-10.9,10.2-20.5,18.8-27.8
		C161.1,28.5,154.8,24.7,147.6,24.7z M147.6,38.2c-2,0-3.7-1.7-3.7-3.7c0-2,1.7-3.7,3.7-3.7c2,0,3.7,1.7,3.7,3.7
		C151.3,36.6,149.6,38.2,147.6,38.2z"/>
</g>
</svg>
